<svg xmlns="http://www.w3.org/2000/svg" width="70" height="70" viewBox="0 0 70 70" style="width: 100%; height: 100%;"><desc>Made with illustrio</desc>
  
<g class="base"><g fill="none" fill-rule="evenodd" stroke="none" class="main-fill">
    
    
    <path fill="none" d="M16.4705882,0.972662353 C16.4705882,1.36087782 16.8628678,1.816493 17.2941176,1.79619176 C26.4003139,1.79619176 33.7647059,9.16060353 33.7647059,18.26678 C33.7585541,18.7018609 34.1531108,19.1020381 34.5882353,19.1020381 C35.0233598,19.1020381 35.4179177,18.7018609 35.4117647,18.26678 C35.4117647,8.27046706 27.290452,0.149132941 17.2941176,0.149132941 C16.7960355,0.149132941 16.4705882,0.584446882 16.4705882,0.972662353 Z M5.76470588,0.972662353 C1.86675424,0.972662353 2.05882353e-07,6.45231176 0,10.0314859 C-1.85294118e-06,14.7224906 1.22325494,18.9363918 3.79595588,23.4395741 C7.83563694,30.5104388 12.99543,35.5608565 19.3529412,35.5608976 C21.8763407,35.5608976 24.7058889,32.9405918 24.7058824,30.2079565 C23.6698383,28.9361388 20.5882353,25.6785447 20.5882353,25.6785447 C19.9358472,25.0261035 18.9411756,25.6785447 17.7058824,26.5020741 C15.9653571,27.5174859 15.1520365,27.2943506 14,26.0903094 C12.4166935,24.4269859 10.7269301,22.1129094 9.47058824,19.9138388 C8.21421671,17.7147682 7.63373635,15.5428782 7,13.3256035 C6.54433706,11.7153235 6.49479806,10.6352729 8.23529412,9.61972118 C8.99804129,9.20820353 10.2941181,8.61177882 10.2941176,7.97266235 C10.2941176,7.97266235 9.21875541,3.33881059 8.64705882,1.79619176 C7.83521571,1.25450706 6.76393694,0.972662353 5.76470588,0.972662353 Z M16.4705882,5.50207412 C16.4705882,5.89028959 16.8628678,6.34590476 17.2941176,6.32560353 C23.8682516,6.32560353 29.2352941,11.6926147 29.2352941,18.26678 C29.2291424,18.7018609 29.623699,19.1020381 30.0588235,19.1020381 C30.4939481,19.1020381 30.8885059,18.7018609 30.8823529,18.26678 C30.8823529,10.7949018 24.7659613,4.67854471 17.2941176,4.67854471 C16.8055415,4.67854471 16.4705882,5.11385865 16.4705882,5.50207412 Z M16.4705882,10.0314859 C16.4705882,10.4197014 16.8628678,10.8753165 17.2941176,10.8550153 C21.3319297,10.8550153 24.7058824,14.2289659 24.7058824,18.26678 C24.6997306,18.7018609 25.0942872,19.1020381 25.5294118,19.1020381 C25.9645363,19.1020381 26.3590942,18.7018609 26.3529412,18.26678 C26.3529412,13.3151612 22.2457385,9.20795647 17.2941176,9.20795647 C16.8208435,9.20795647 16.4705882,9.64327041 16.4705882,10.0314859 Z" transform="translate(17.294 17.145)" stroke="none" class="main-fill"></path>
  </g></g><style>
          .main-fill {fill: #ffffff;}
          .main-stroke {stroke: #ffffff;}
          .secondary-fill {fill: #ffffff;}
          .secondary-stroke {stroke: #ffffff;}

          .main-fill--darken {fill: #ffffff;}
          .main-stroke--darken {stroke: #ffffff;}
          .secondary-fill--darken {fill: #ffffff;}
          .secondary-stroke--darken {stroke: #ffffff;}

          .main-fill--darkener {fill: #ffffff;}
          .main-stroke--darkener {stroke: #ffffff;}
          .secondary-fill--darkener {fill: #ffffff;}
          .secondary-stroke--darkener {stroke: #ffffff;}
        </style></svg>